<mxfile host="app.diagrams.net" agent="Mozilla/5.0 (Windows NT 10.0; Win64; x64) AppleWebKit/537.36 (KHTML, like Gecko) Chrome/132.0.0.0 Safari/537.36" version="26.0.11">
  <diagram name="Page-1" id="_FjNjX_snCqXEN0fI7pj">
    <mxGraphModel dx="3176" dy="1680" grid="1" gridSize="10" guides="1" tooltips="1" connect="1" arrows="1" fold="1" page="1" pageScale="1" pageWidth="850" pageHeight="1100" math="0" shadow="0">
      <root>
        <mxCell id="0" />
        <mxCell id="1" parent="0" />
        <mxCell id="b1iTSKqFhkhz4oN8w0d4-212" value="" style="whiteSpace=wrap;html=1;aspect=fixed;" vertex="1" parent="1">
          <mxGeometry x="850" y="250" width="1470" height="1470" as="geometry" />
        </mxCell>
        <mxCell id="b1iTSKqFhkhz4oN8w0d4-213" value="" style="rounded=1;whiteSpace=wrap;html=1;" vertex="1" parent="1">
          <mxGeometry x="860" y="250" width="230" height="40" as="geometry" />
        </mxCell>
        <mxCell id="b1iTSKqFhkhz4oN8w0d4-214" value="&lt;font style=&quot;font-size: 18px;&quot;&gt;School of the&amp;nbsp;future&lt;/font&gt;" style="text;html=1;align=center;verticalAlign=middle;whiteSpace=wrap;rounded=0;" vertex="1" parent="1">
          <mxGeometry x="885" y="250" width="180" height="40" as="geometry" />
        </mxCell>
        <mxCell id="b1iTSKqFhkhz4oN8w0d4-215" style="edgeStyle=orthogonalEdgeStyle;rounded=0;orthogonalLoop=1;jettySize=auto;html=1;exitX=0.5;exitY=0.5;exitDx=0;exitDy=0;exitPerimeter=0;" edge="1" parent="1" source="b1iTSKqFhkhz4oN8w0d4-216" target="b1iTSKqFhkhz4oN8w0d4-222">
          <mxGeometry relative="1" as="geometry" />
        </mxCell>
        <mxCell id="b1iTSKqFhkhz4oN8w0d4-216" value="viewer" style="shape=umlActor;verticalLabelPosition=bottom;verticalAlign=top;html=1;outlineConnect=0;" vertex="1" parent="1">
          <mxGeometry x="740" y="345" width="30" height="60" as="geometry" />
        </mxCell>
        <mxCell id="b1iTSKqFhkhz4oN8w0d4-217" style="edgeStyle=orthogonalEdgeStyle;rounded=0;orthogonalLoop=1;jettySize=auto;html=1;entryX=0;entryY=0.5;entryDx=0;entryDy=0;" edge="1" parent="1" source="b1iTSKqFhkhz4oN8w0d4-219" target="b1iTSKqFhkhz4oN8w0d4-245">
          <mxGeometry relative="1" as="geometry" />
        </mxCell>
        <mxCell id="b1iTSKqFhkhz4oN8w0d4-218" style="edgeStyle=elbowEdgeStyle;rounded=0;orthogonalLoop=1;jettySize=auto;html=1;entryX=0;entryY=0.3333333333333333;entryDx=0;entryDy=0;entryPerimeter=0;" edge="1" parent="1" source="b1iTSKqFhkhz4oN8w0d4-219" target="b1iTSKqFhkhz4oN8w0d4-216">
          <mxGeometry relative="1" as="geometry">
            <mxPoint x="680" y="370" as="targetPoint" />
            <Array as="points">
              <mxPoint x="670" y="620" />
            </Array>
          </mxGeometry>
        </mxCell>
        <mxCell id="b1iTSKqFhkhz4oN8w0d4-219" value="Enseignante" style="shape=umlActor;verticalLabelPosition=bottom;verticalAlign=top;html=1;outlineConnect=0;" vertex="1" parent="1">
          <mxGeometry x="740" y="860" width="30" height="60" as="geometry" />
        </mxCell>
        <mxCell id="b1iTSKqFhkhz4oN8w0d4-220" style="edgeStyle=orthogonalEdgeStyle;rounded=0;orthogonalLoop=1;jettySize=auto;html=1;" edge="1" parent="1" source="b1iTSKqFhkhz4oN8w0d4-221" target="b1iTSKqFhkhz4oN8w0d4-237">
          <mxGeometry relative="1" as="geometry" />
        </mxCell>
        <mxCell id="b1iTSKqFhkhz4oN8w0d4-221" value="User" style="shape=umlActor;verticalLabelPosition=bottom;verticalAlign=top;html=1;outlineConnect=0;" vertex="1" parent="1">
          <mxGeometry x="740" y="605" width="30" height="60" as="geometry" />
        </mxCell>
        <mxCell id="b1iTSKqFhkhz4oN8w0d4-222" value="" style="ellipse;whiteSpace=wrap;html=1;" vertex="1" parent="1">
          <mxGeometry x="1523" y="340" width="200" height="70" as="geometry" />
        </mxCell>
        <mxCell id="b1iTSKqFhkhz4oN8w0d4-223" value="&lt;font style=&quot;font-size: 18px;&quot;&gt;View Home Page /&amp;nbsp;&lt;/font&gt;" style="text;html=1;align=center;verticalAlign=middle;whiteSpace=wrap;rounded=0;shadow=1;strokeWidth=9;" vertex="1" parent="1">
          <mxGeometry x="1546.5" y="345" width="157" height="60" as="geometry" />
        </mxCell>
        <mxCell id="b1iTSKqFhkhz4oN8w0d4-224" value="Rougester/logine&amp;nbsp;" style="ellipse;whiteSpace=wrap;html=1;" vertex="1" parent="1">
          <mxGeometry x="1260" y="460" width="120" height="50" as="geometry" />
        </mxCell>
        <mxCell id="b1iTSKqFhkhz4oN8w0d4-225" value="" style="endArrow=classic;html=1;rounded=0;entryX=0.572;entryY=0.04;entryDx=0;entryDy=0;entryPerimeter=0;exitX=0.022;exitY=0.917;exitDx=0;exitDy=0;dashed=1;exitPerimeter=0;" edge="1" parent="1" source="b1iTSKqFhkhz4oN8w0d4-223" target="b1iTSKqFhkhz4oN8w0d4-224">
          <mxGeometry width="50" height="50" relative="1" as="geometry">
            <mxPoint x="1553" y="420" as="sourcePoint" />
            <mxPoint x="1603" y="370" as="targetPoint" />
          </mxGeometry>
        </mxCell>
        <mxCell id="b1iTSKqFhkhz4oN8w0d4-226" value="Ex" style="edgeLabel;html=1;align=center;verticalAlign=middle;resizable=0;points=[];" vertex="1" connectable="0" parent="b1iTSKqFhkhz4oN8w0d4-225">
          <mxGeometry x="-0.0912" y="1" relative="1" as="geometry">
            <mxPoint as="offset" />
          </mxGeometry>
        </mxCell>
        <mxCell id="b1iTSKqFhkhz4oN8w0d4-227" value="search by category" style="ellipse;whiteSpace=wrap;html=1;" vertex="1" parent="1">
          <mxGeometry x="1563" y="460" width="120" height="50" as="geometry" />
        </mxCell>
        <mxCell id="b1iTSKqFhkhz4oN8w0d4-228" value="Rougester/logine&amp;nbsp;" style="ellipse;whiteSpace=wrap;html=1;" vertex="1" parent="1">
          <mxGeometry x="1860" y="460" width="120" height="50" as="geometry" />
        </mxCell>
        <mxCell id="b1iTSKqFhkhz4oN8w0d4-229" value="" style="endArrow=classic;html=1;rounded=0;dashed=1;exitX=0.5;exitY=1;exitDx=0;exitDy=0;" edge="1" parent="1" source="b1iTSKqFhkhz4oN8w0d4-222" target="b1iTSKqFhkhz4oN8w0d4-227">
          <mxGeometry width="50" height="50" relative="1" as="geometry">
            <mxPoint x="1623" y="407" as="sourcePoint" />
            <mxPoint x="1492" y="472" as="targetPoint" />
          </mxGeometry>
        </mxCell>
        <mxCell id="b1iTSKqFhkhz4oN8w0d4-230" value="Ex" style="edgeLabel;html=1;align=center;verticalAlign=middle;resizable=0;points=[];" vertex="1" connectable="0" parent="b1iTSKqFhkhz4oN8w0d4-229">
          <mxGeometry x="-0.0912" y="1" relative="1" as="geometry">
            <mxPoint as="offset" />
          </mxGeometry>
        </mxCell>
        <mxCell id="b1iTSKqFhkhz4oN8w0d4-231" value="" style="endArrow=classic;html=1;rounded=0;dashed=1;exitX=1;exitY=1;exitDx=0;exitDy=0;entryX=0.5;entryY=0;entryDx=0;entryDy=0;" edge="1" parent="1" source="b1iTSKqFhkhz4oN8w0d4-222" target="b1iTSKqFhkhz4oN8w0d4-228">
          <mxGeometry width="50" height="50" relative="1" as="geometry">
            <mxPoint x="1633" y="420" as="sourcePoint" />
            <mxPoint x="1633" y="470" as="targetPoint" />
          </mxGeometry>
        </mxCell>
        <mxCell id="b1iTSKqFhkhz4oN8w0d4-232" value="Ex" style="edgeLabel;html=1;align=center;verticalAlign=middle;resizable=0;points=[];" vertex="1" connectable="0" parent="b1iTSKqFhkhz4oN8w0d4-231">
          <mxGeometry x="-0.0912" y="1" relative="1" as="geometry">
            <mxPoint as="offset" />
          </mxGeometry>
        </mxCell>
        <mxCell id="b1iTSKqFhkhz4oN8w0d4-233" style="edgeStyle=orthogonalEdgeStyle;rounded=0;orthogonalLoop=1;jettySize=auto;html=1;entryX=0.5;entryY=0.5;entryDx=0;entryDy=0;entryPerimeter=0;" edge="1" parent="1" source="b1iTSKqFhkhz4oN8w0d4-221" target="b1iTSKqFhkhz4oN8w0d4-216">
          <mxGeometry relative="1" as="geometry" />
        </mxCell>
        <mxCell id="b1iTSKqFhkhz4oN8w0d4-234" value="" style="endArrow=classic;html=1;rounded=0;entryX=1;entryY=0.5;entryDx=0;entryDy=0;dashed=1;strokeWidth=4;" edge="1" parent="1" source="b1iTSKqFhkhz4oN8w0d4-237" target="b1iTSKqFhkhz4oN8w0d4-294">
          <mxGeometry width="50" height="50" relative="1" as="geometry">
            <mxPoint x="1541.825641277816" y="610.0561254241725" as="sourcePoint" />
            <mxPoint x="1820" y="610" as="targetPoint" />
          </mxGeometry>
        </mxCell>
        <mxCell id="b1iTSKqFhkhz4oN8w0d4-235" value="include" style="edgeLabel;html=1;align=center;verticalAlign=middle;resizable=0;points=[];" vertex="1" connectable="0" parent="b1iTSKqFhkhz4oN8w0d4-234">
          <mxGeometry x="0.0601" y="2" relative="1" as="geometry">
            <mxPoint as="offset" />
          </mxGeometry>
        </mxCell>
        <mxCell id="b1iTSKqFhkhz4oN8w0d4-236" value="&lt;font style=&quot;font-size: 20px;&quot;&gt;includ&lt;/font&gt;" style="edgeLabel;html=1;align=center;verticalAlign=middle;resizable=0;points=[];" vertex="1" connectable="0" parent="b1iTSKqFhkhz4oN8w0d4-234">
          <mxGeometry x="0.034" y="7" relative="1" as="geometry">
            <mxPoint as="offset" />
          </mxGeometry>
        </mxCell>
        <mxCell id="b1iTSKqFhkhz4oN8w0d4-237" value="&lt;font style=&quot;&quot;&gt;&lt;font style=&quot;font-size: 18px;&quot;&gt;&lt;span style=&quot;color: rgb(0, 0, 0); font-family: Helvetica; font-style: normal; font-variant-ligatures: normal; font-variant-caps: normal; font-weight: 400; letter-spacing: normal; orphans: 2; text-align: center; text-indent: 0px; text-transform: none; widows: 2; word-spacing: 0px; -webkit-text-stroke-width: 0px; white-space: normal; background-color: rgb(251, 251, 251); text-decoration-thickness: initial; text-decoration-style: initial; text-decoration-color: initial; float: none; display: inline !important;&quot;&gt;View Page Etudent&lt;/span&gt;&lt;/font&gt;&lt;br&gt;&lt;/font&gt;" style="ellipse;whiteSpace=wrap;html=1;" vertex="1" parent="1">
          <mxGeometry x="1523" y="600" width="200" height="70" as="geometry" />
        </mxCell>
        <mxCell id="b1iTSKqFhkhz4oN8w0d4-238" value="&lt;font style=&quot;font-size: 18px;&quot;&gt;Gestion Page My course&amp;nbsp;&lt;/font&gt;" style="ellipse;whiteSpace=wrap;html=1;" vertex="1" parent="1">
          <mxGeometry x="1200" y="730" width="170" height="70" as="geometry" />
        </mxCell>
        <mxCell id="b1iTSKqFhkhz4oN8w0d4-239" value="" style="endArrow=classic;html=1;rounded=0;entryX=0.5;entryY=0;entryDx=0;entryDy=0;exitX=0;exitY=1;exitDx=0;exitDy=0;dashed=1;" edge="1" parent="1" source="b1iTSKqFhkhz4oN8w0d4-237" target="b1iTSKqFhkhz4oN8w0d4-238">
          <mxGeometry width="50" height="50" relative="1" as="geometry">
            <mxPoint x="1546.5" y="658" as="sourcePoint" />
            <mxPoint x="1478.5" y="720" as="targetPoint" />
          </mxGeometry>
        </mxCell>
        <mxCell id="b1iTSKqFhkhz4oN8w0d4-240" value="Ex" style="edgeLabel;html=1;align=center;verticalAlign=middle;resizable=0;points=[];" vertex="1" connectable="0" parent="b1iTSKqFhkhz4oN8w0d4-239">
          <mxGeometry x="-0.0912" y="1" relative="1" as="geometry">
            <mxPoint as="offset" />
          </mxGeometry>
        </mxCell>
        <mxCell id="b1iTSKqFhkhz4oN8w0d4-241" value="" style="endArrow=classic;html=1;rounded=0;entryX=0.5;entryY=0;entryDx=0;entryDy=0;exitX=0.5;exitY=1;exitDx=0;exitDy=0;dashed=1;" edge="1" parent="1" source="b1iTSKqFhkhz4oN8w0d4-237">
          <mxGeometry width="50" height="50" relative="1" as="geometry">
            <mxPoint x="1684.5" y="670" as="sourcePoint" />
            <mxPoint x="1710" y="730" as="targetPoint" />
          </mxGeometry>
        </mxCell>
        <mxCell id="b1iTSKqFhkhz4oN8w0d4-242" value="Ex" style="edgeLabel;html=1;align=center;verticalAlign=middle;resizable=0;points=[];" vertex="1" connectable="0" parent="b1iTSKqFhkhz4oN8w0d4-241">
          <mxGeometry x="-0.0912" y="1" relative="1" as="geometry">
            <mxPoint as="offset" />
          </mxGeometry>
        </mxCell>
        <mxCell id="b1iTSKqFhkhz4oN8w0d4-243" value="" style="endArrow=classic;html=1;rounded=0;entryX=0.5;entryY=0;entryDx=0;entryDy=0;exitX=1;exitY=1;exitDx=0;exitDy=0;dashed=1;" edge="1" parent="1" source="b1iTSKqFhkhz4oN8w0d4-237">
          <mxGeometry width="50" height="50" relative="1" as="geometry">
            <mxPoint x="1633" y="680" as="sourcePoint" />
            <mxPoint x="1920" y="730" as="targetPoint" />
          </mxGeometry>
        </mxCell>
        <mxCell id="b1iTSKqFhkhz4oN8w0d4-244" value="Ex" style="edgeLabel;html=1;align=center;verticalAlign=middle;resizable=0;points=[];" vertex="1" connectable="0" parent="b1iTSKqFhkhz4oN8w0d4-243">
          <mxGeometry x="-0.0912" y="1" relative="1" as="geometry">
            <mxPoint as="offset" />
          </mxGeometry>
        </mxCell>
        <mxCell id="b1iTSKqFhkhz4oN8w0d4-245" value="&lt;font style=&quot;&quot;&gt;&lt;font style=&quot;font-size: 18px;&quot;&gt;&lt;span style=&quot;color: rgb(0, 0, 0); font-family: Helvetica; font-style: normal; font-variant-ligatures: normal; font-variant-caps: normal; font-weight: 400; letter-spacing: normal; orphans: 2; text-align: center; text-indent: 0px; text-transform: none; widows: 2; word-spacing: 0px; -webkit-text-stroke-width: 0px; white-space: normal; background-color: rgb(251, 251, 251); text-decoration-thickness: initial; text-decoration-style: initial; text-decoration-color: initial; float: none; display: inline !important;&quot;&gt;View Page&amp;nbsp;enseignante&lt;/span&gt;&lt;/font&gt;&lt;br&gt;&lt;/font&gt;" style="ellipse;whiteSpace=wrap;html=1;" vertex="1" parent="1">
          <mxGeometry x="1523" y="855" width="200" height="70" as="geometry" />
        </mxCell>
        <mxCell id="b1iTSKqFhkhz4oN8w0d4-246" value="" style="endArrow=classic;html=1;rounded=0;entryX=0.5;entryY=0;entryDx=0;entryDy=0;exitX=1;exitY=1;exitDx=0;exitDy=0;dashed=1;" edge="1" parent="1" source="b1iTSKqFhkhz4oN8w0d4-245" target="b1iTSKqFhkhz4oN8w0d4-287">
          <mxGeometry width="50" height="50" relative="1" as="geometry">
            <mxPoint x="1703.5" y="910" as="sourcePoint" />
            <mxPoint x="2000" y="1000" as="targetPoint" />
          </mxGeometry>
        </mxCell>
        <mxCell id="b1iTSKqFhkhz4oN8w0d4-247" value="Ex" style="edgeLabel;html=1;align=center;verticalAlign=middle;resizable=0;points=[];" vertex="1" connectable="0" parent="b1iTSKqFhkhz4oN8w0d4-246">
          <mxGeometry x="-0.0912" y="1" relative="1" as="geometry">
            <mxPoint as="offset" />
          </mxGeometry>
        </mxCell>
        <mxCell id="b1iTSKqFhkhz4oN8w0d4-248" value="" style="endArrow=classic;html=1;rounded=0;entryX=0.5;entryY=0;entryDx=0;entryDy=0;exitX=0.5;exitY=1;exitDx=0;exitDy=0;dashed=1;" edge="1" parent="1" source="b1iTSKqFhkhz4oN8w0d4-245" target="b1iTSKqFhkhz4oN8w0d4-285">
          <mxGeometry width="50" height="50" relative="1" as="geometry">
            <mxPoint x="1730" y="910" as="sourcePoint" />
            <mxPoint x="1440" y="990" as="targetPoint" />
          </mxGeometry>
        </mxCell>
        <mxCell id="b1iTSKqFhkhz4oN8w0d4-249" value="Ex" style="edgeLabel;html=1;align=center;verticalAlign=middle;resizable=0;points=[];" vertex="1" connectable="0" parent="b1iTSKqFhkhz4oN8w0d4-248">
          <mxGeometry x="-0.0912" y="1" relative="1" as="geometry">
            <mxPoint as="offset" />
          </mxGeometry>
        </mxCell>
        <mxCell id="b1iTSKqFhkhz4oN8w0d4-250" value="" style="endArrow=classic;html=1;rounded=0;entryX=0.5;entryY=0;entryDx=0;entryDy=0;exitX=0;exitY=1;exitDx=0;exitDy=0;dashed=1;" edge="1" parent="1" source="b1iTSKqFhkhz4oN8w0d4-245" target="b1iTSKqFhkhz4oN8w0d4-286">
          <mxGeometry width="50" height="50" relative="1" as="geometry">
            <mxPoint x="1633" y="935" as="sourcePoint" />
            <mxPoint x="1260" y="990" as="targetPoint" />
          </mxGeometry>
        </mxCell>
        <mxCell id="b1iTSKqFhkhz4oN8w0d4-251" value="Ex" style="edgeLabel;html=1;align=center;verticalAlign=middle;resizable=0;points=[];" vertex="1" connectable="0" parent="b1iTSKqFhkhz4oN8w0d4-250">
          <mxGeometry x="-0.0912" y="1" relative="1" as="geometry">
            <mxPoint as="offset" />
          </mxGeometry>
        </mxCell>
        <mxCell id="b1iTSKqFhkhz4oN8w0d4-252" style="edgeStyle=orthogonalEdgeStyle;rounded=0;orthogonalLoop=1;jettySize=auto;html=1;exitX=0.5;exitY=1;exitDx=0;exitDy=0;" edge="1" parent="1">
          <mxGeometry relative="1" as="geometry">
            <mxPoint x="1440" y="1040" as="sourcePoint" />
            <mxPoint x="1440" y="1040" as="targetPoint" />
          </mxGeometry>
        </mxCell>
        <mxCell id="b1iTSKqFhkhz4oN8w0d4-253" value="" style="endArrow=classic;html=1;rounded=0;entryX=0.5;entryY=0;entryDx=0;entryDy=0;dashed=1;exitX=0.5;exitY=1;exitDx=0;exitDy=0;" edge="1" parent="1" source="b1iTSKqFhkhz4oN8w0d4-245" target="b1iTSKqFhkhz4oN8w0d4-283">
          <mxGeometry width="50" height="50" relative="1" as="geometry">
            <mxPoint x="1623" y="930" as="sourcePoint" />
            <mxPoint x="1783" y="990" as="targetPoint" />
          </mxGeometry>
        </mxCell>
        <mxCell id="b1iTSKqFhkhz4oN8w0d4-254" value="Ex" style="edgeLabel;html=1;align=center;verticalAlign=middle;resizable=0;points=[];" vertex="1" connectable="0" parent="b1iTSKqFhkhz4oN8w0d4-253">
          <mxGeometry x="-0.0912" y="1" relative="1" as="geometry">
            <mxPoint as="offset" />
          </mxGeometry>
        </mxCell>
        <mxCell id="b1iTSKqFhkhz4oN8w0d4-255" value="" style="endArrow=classic;html=1;rounded=0;entryX=0.5;entryY=0;entryDx=0;entryDy=0;dashed=1;exitX=0.5;exitY=1;exitDx=0;exitDy=0;" edge="1" parent="1" source="b1iTSKqFhkhz4oN8w0d4-245" target="b1iTSKqFhkhz4oN8w0d4-284">
          <mxGeometry width="50" height="50" relative="1" as="geometry">
            <mxPoint x="1633" y="935" as="sourcePoint" />
            <mxPoint x="1625" y="990" as="targetPoint" />
          </mxGeometry>
        </mxCell>
        <mxCell id="b1iTSKqFhkhz4oN8w0d4-256" value="Ex" style="edgeLabel;html=1;align=center;verticalAlign=middle;resizable=0;points=[];" vertex="1" connectable="0" parent="b1iTSKqFhkhz4oN8w0d4-255">
          <mxGeometry x="-0.0912" y="1" relative="1" as="geometry">
            <mxPoint as="offset" />
          </mxGeometry>
        </mxCell>
        <mxCell id="b1iTSKqFhkhz4oN8w0d4-257" value="" style="endArrow=classic;html=1;rounded=0;entryX=0.5;entryY=1;entryDx=0;entryDy=0;dashed=1;exitX=0;exitY=0;exitDx=0;exitDy=0;edgeStyle=orthogonalEdgeStyle;strokeWidth=4;" edge="1" parent="1" source="b1iTSKqFhkhz4oN8w0d4-245" target="b1iTSKqFhkhz4oN8w0d4-294">
          <mxGeometry width="50" height="50" relative="1" as="geometry">
            <mxPoint x="1358" y="618" as="sourcePoint" />
            <mxPoint x="1120" y="520" as="targetPoint" />
            <Array as="points">
              <mxPoint x="1549" y="840" />
              <mxPoint x="950" y="840" />
              <mxPoint x="950" y="540" />
            </Array>
          </mxGeometry>
        </mxCell>
        <mxCell id="b1iTSKqFhkhz4oN8w0d4-258" value="&lt;font style=&quot;font-size: 20px;&quot;&gt;include&lt;/font&gt;" style="edgeLabel;html=1;align=center;verticalAlign=middle;resizable=0;points=[];" vertex="1" connectable="0" parent="b1iTSKqFhkhz4oN8w0d4-257">
          <mxGeometry x="0.0601" y="2" relative="1" as="geometry">
            <mxPoint as="offset" />
          </mxGeometry>
        </mxCell>
        <mxCell id="b1iTSKqFhkhz4oN8w0d4-259" style="edgeStyle=orthogonalEdgeStyle;rounded=0;orthogonalLoop=1;jettySize=auto;html=1;entryX=0;entryY=0.5;entryDx=0;entryDy=0;" edge="1" parent="1" source="b1iTSKqFhkhz4oN8w0d4-260" target="b1iTSKqFhkhz4oN8w0d4-264">
          <mxGeometry relative="1" as="geometry" />
        </mxCell>
        <mxCell id="b1iTSKqFhkhz4oN8w0d4-260" value="Admine" style="shape=umlActor;verticalLabelPosition=bottom;verticalAlign=top;html=1;outlineConnect=0;" vertex="1" parent="1">
          <mxGeometry x="740" y="1135" width="30" height="60" as="geometry" />
        </mxCell>
        <mxCell id="b1iTSKqFhkhz4oN8w0d4-261" style="edgeStyle=elbowEdgeStyle;rounded=0;orthogonalLoop=1;jettySize=auto;html=1;dashed=1;" edge="1" parent="1" source="b1iTSKqFhkhz4oN8w0d4-264" target="b1iTSKqFhkhz4oN8w0d4-212">
          <mxGeometry relative="1" as="geometry">
            <mxPoint x="920" y="461.1111111111111" as="targetPoint" />
            <Array as="points">
              <mxPoint x="920" y="860" />
            </Array>
          </mxGeometry>
        </mxCell>
        <mxCell id="b1iTSKqFhkhz4oN8w0d4-262" style="edgeStyle=orthogonalEdgeStyle;rounded=0;orthogonalLoop=1;jettySize=auto;html=1;dashed=1;strokeWidth=4;exitX=0.5;exitY=0;exitDx=0;exitDy=0;entryX=0.5;entryY=1;entryDx=0;entryDy=0;" edge="1" parent="1" source="b1iTSKqFhkhz4oN8w0d4-264" target="b1iTSKqFhkhz4oN8w0d4-294">
          <mxGeometry relative="1" as="geometry">
            <mxPoint x="1070" y="640.0000000000002" as="targetPoint" />
            <Array as="points">
              <mxPoint x="947" y="1130" />
            </Array>
          </mxGeometry>
        </mxCell>
        <mxCell id="b1iTSKqFhkhz4oN8w0d4-263" value="&lt;font style=&quot;font-size: 20px;&quot;&gt;Include&lt;/font&gt;" style="edgeLabel;html=1;align=center;verticalAlign=middle;resizable=0;points=[];" vertex="1" connectable="0" parent="b1iTSKqFhkhz4oN8w0d4-262">
          <mxGeometry x="-0.377" y="5" relative="1" as="geometry">
            <mxPoint as="offset" />
          </mxGeometry>
        </mxCell>
        <mxCell id="b1iTSKqFhkhz4oN8w0d4-264" value="&lt;font style=&quot;&quot;&gt;&lt;font style=&quot;font-size: 18px;&quot;&gt;&lt;span style=&quot;color: rgb(0, 0, 0); font-family: Helvetica; font-style: normal; font-variant-ligatures: normal; font-variant-caps: normal; font-weight: 400; letter-spacing: normal; orphans: 2; text-align: center; text-indent: 0px; text-transform: none; widows: 2; word-spacing: 0px; -webkit-text-stroke-width: 0px; white-space: normal; background-color: rgb(251, 251, 251); text-decoration-thickness: initial; text-decoration-style: initial; text-decoration-color: initial; float: none; display: inline !important;&quot;&gt;View Dashboard&amp;nbsp;&lt;/span&gt;&lt;/font&gt;&lt;br&gt;&lt;/font&gt;" style="ellipse;whiteSpace=wrap;html=1;" vertex="1" parent="1">
          <mxGeometry x="1526" y="1130" width="200" height="70" as="geometry" />
        </mxCell>
        <mxCell id="b1iTSKqFhkhz4oN8w0d4-265" value="" style="endArrow=classic;html=1;rounded=0;entryX=0.5;entryY=0;entryDx=0;entryDy=0;exitX=0.985;exitY=0.643;exitDx=0;exitDy=0;dashed=1;exitPerimeter=0;" edge="1" parent="1" source="b1iTSKqFhkhz4oN8w0d4-264" target="b1iTSKqFhkhz4oN8w0d4-289">
          <mxGeometry width="50" height="50" relative="1" as="geometry">
            <mxPoint x="1706.5" y="1185" as="sourcePoint" />
            <mxPoint x="1956" y="1265" as="targetPoint" />
          </mxGeometry>
        </mxCell>
        <mxCell id="b1iTSKqFhkhz4oN8w0d4-266" value="Ex" style="edgeLabel;html=1;align=center;verticalAlign=middle;resizable=0;points=[];" vertex="1" connectable="0" parent="b1iTSKqFhkhz4oN8w0d4-265">
          <mxGeometry x="-0.0912" y="1" relative="1" as="geometry">
            <mxPoint as="offset" />
          </mxGeometry>
        </mxCell>
        <mxCell id="b1iTSKqFhkhz4oN8w0d4-267" value="" style="endArrow=classic;html=1;rounded=0;entryX=0.5;entryY=0;entryDx=0;entryDy=0;exitX=0.5;exitY=1;exitDx=0;exitDy=0;dashed=1;" edge="1" parent="1" source="b1iTSKqFhkhz4oN8w0d4-264" target="b1iTSKqFhkhz4oN8w0d4-292">
          <mxGeometry width="50" height="50" relative="1" as="geometry">
            <mxPoint x="1733" y="1185" as="sourcePoint" />
            <mxPoint x="1435" y="1265" as="targetPoint" />
          </mxGeometry>
        </mxCell>
        <mxCell id="b1iTSKqFhkhz4oN8w0d4-268" value="Ex" style="edgeLabel;html=1;align=center;verticalAlign=middle;resizable=0;points=[];" vertex="1" connectable="0" parent="b1iTSKqFhkhz4oN8w0d4-267">
          <mxGeometry x="-0.0912" y="1" relative="1" as="geometry">
            <mxPoint as="offset" />
          </mxGeometry>
        </mxCell>
        <mxCell id="b1iTSKqFhkhz4oN8w0d4-269" value="" style="endArrow=classic;html=1;rounded=0;entryX=0.5;entryY=0;entryDx=0;entryDy=0;exitX=0;exitY=1;exitDx=0;exitDy=0;dashed=1;" edge="1" parent="1" source="b1iTSKqFhkhz4oN8w0d4-264" target="b1iTSKqFhkhz4oN8w0d4-293">
          <mxGeometry width="50" height="50" relative="1" as="geometry">
            <mxPoint x="1636" y="1210" as="sourcePoint" />
            <mxPoint x="1255" y="1267.5" as="targetPoint" />
          </mxGeometry>
        </mxCell>
        <mxCell id="b1iTSKqFhkhz4oN8w0d4-270" value="Ex" style="edgeLabel;html=1;align=center;verticalAlign=middle;resizable=0;points=[];" vertex="1" connectable="0" parent="b1iTSKqFhkhz4oN8w0d4-269">
          <mxGeometry x="-0.0912" y="1" relative="1" as="geometry">
            <mxPoint as="offset" />
          </mxGeometry>
        </mxCell>
        <mxCell id="b1iTSKqFhkhz4oN8w0d4-271" style="edgeStyle=orthogonalEdgeStyle;rounded=0;orthogonalLoop=1;jettySize=auto;html=1;exitX=0.5;exitY=1;exitDx=0;exitDy=0;" edge="1" parent="1">
          <mxGeometry relative="1" as="geometry">
            <mxPoint x="1435" y="1320" as="sourcePoint" />
            <mxPoint x="1435" y="1320" as="targetPoint" />
          </mxGeometry>
        </mxCell>
        <mxCell id="b1iTSKqFhkhz4oN8w0d4-272" value="" style="endArrow=classic;html=1;rounded=0;dashed=1;exitX=0.5;exitY=1;exitDx=0;exitDy=0;entryX=0.5;entryY=0;entryDx=0;entryDy=0;" edge="1" parent="1" source="b1iTSKqFhkhz4oN8w0d4-264" target="b1iTSKqFhkhz4oN8w0d4-288">
          <mxGeometry width="50" height="50" relative="1" as="geometry">
            <mxPoint x="1626" y="1205" as="sourcePoint" />
            <mxPoint x="1780" y="1250" as="targetPoint" />
          </mxGeometry>
        </mxCell>
        <mxCell id="b1iTSKqFhkhz4oN8w0d4-273" value="Ex" style="edgeLabel;html=1;align=center;verticalAlign=middle;resizable=0;points=[];" vertex="1" connectable="0" parent="b1iTSKqFhkhz4oN8w0d4-272">
          <mxGeometry x="-0.0912" y="1" relative="1" as="geometry">
            <mxPoint as="offset" />
          </mxGeometry>
        </mxCell>
        <mxCell id="b1iTSKqFhkhz4oN8w0d4-274" value="" style="endArrow=classic;html=1;rounded=0;entryX=0.5;entryY=0;entryDx=0;entryDy=0;dashed=1;" edge="1" parent="1" source="b1iTSKqFhkhz4oN8w0d4-264" target="b1iTSKqFhkhz4oN8w0d4-291">
          <mxGeometry width="50" height="50" relative="1" as="geometry">
            <mxPoint x="1636" y="1210" as="sourcePoint" />
            <mxPoint x="1623" y="1257.5" as="targetPoint" />
          </mxGeometry>
        </mxCell>
        <mxCell id="b1iTSKqFhkhz4oN8w0d4-275" value="Ex" style="edgeLabel;html=1;align=center;verticalAlign=middle;resizable=0;points=[];" vertex="1" connectable="0" parent="b1iTSKqFhkhz4oN8w0d4-274">
          <mxGeometry x="-0.0912" y="1" relative="1" as="geometry">
            <mxPoint as="offset" />
          </mxGeometry>
        </mxCell>
        <mxCell id="b1iTSKqFhkhz4oN8w0d4-276" value="" style="endArrow=classic;html=1;rounded=0;entryX=0.5;entryY=0;entryDx=0;entryDy=0;dashed=1;" edge="1" parent="1" target="b1iTSKqFhkhz4oN8w0d4-280">
          <mxGeometry width="50" height="50" relative="1" as="geometry">
            <mxPoint x="1630" y="670" as="sourcePoint" />
            <mxPoint x="1505" y="715" as="targetPoint" />
          </mxGeometry>
        </mxCell>
        <mxCell id="b1iTSKqFhkhz4oN8w0d4-277" value="Ex" style="edgeLabel;html=1;align=center;verticalAlign=middle;resizable=0;points=[];" vertex="1" connectable="0" parent="b1iTSKqFhkhz4oN8w0d4-276">
          <mxGeometry x="-0.0912" y="1" relative="1" as="geometry">
            <mxPoint as="offset" />
          </mxGeometry>
        </mxCell>
        <mxCell id="b1iTSKqFhkhz4oN8w0d4-278" value="EX" style="rounded=0;orthogonalLoop=1;jettySize=auto;html=1;entryX=0.988;entryY=0.6;entryDx=0;entryDy=0;dashed=1;startArrow=blockThin;startFill=1;endArrow=none;entryPerimeter=0;exitX=0;exitY=0;exitDx=0;exitDy=0;" edge="1" parent="1" source="b1iTSKqFhkhz4oN8w0d4-290" target="b1iTSKqFhkhz4oN8w0d4-264">
          <mxGeometry relative="1" as="geometry">
            <mxPoint x="2053.79414360538" y="1223.7509751838563" as="sourcePoint" />
          </mxGeometry>
        </mxCell>
        <mxCell id="b1iTSKqFhkhz4oN8w0d4-279" style="edgeStyle=elbowEdgeStyle;rounded=0;orthogonalLoop=1;jettySize=auto;html=1;entryX=0;entryY=0.3333333333333333;entryDx=0;entryDy=0;entryPerimeter=0;exitX=0.5;exitY=0.5;exitDx=0;exitDy=0;exitPerimeter=0;" edge="1" parent="1" source="b1iTSKqFhkhz4oN8w0d4-260" target="b1iTSKqFhkhz4oN8w0d4-216">
          <mxGeometry relative="1" as="geometry">
            <mxPoint x="750" y="375" as="targetPoint" />
            <mxPoint x="750" y="900" as="sourcePoint" />
            <Array as="points">
              <mxPoint x="670" y="780" />
            </Array>
          </mxGeometry>
        </mxCell>
        <mxCell id="b1iTSKqFhkhz4oN8w0d4-280" value="&lt;font style=&quot;font-size: 18px;&quot;&gt;View touts Courses&lt;/font&gt;" style="ellipse;whiteSpace=wrap;html=1;" vertex="1" parent="1">
          <mxGeometry x="1413" y="730" width="170" height="70" as="geometry" />
        </mxCell>
        <mxCell id="b1iTSKqFhkhz4oN8w0d4-281" value="&lt;font style=&quot;font-size: 18px;&quot;&gt;interaction pour le course&amp;nbsp;&lt;/font&gt;" style="ellipse;whiteSpace=wrap;html=1;" vertex="1" parent="1">
          <mxGeometry x="1650" y="730" width="170" height="70" as="geometry" />
        </mxCell>
        <mxCell id="b1iTSKqFhkhz4oN8w0d4-282" value="&lt;font style=&quot;font-size: 18px;&quot;&gt;search by courses&lt;/font&gt;" style="ellipse;whiteSpace=wrap;html=1;" vertex="1" parent="1">
          <mxGeometry x="1846" y="730" width="170" height="70" as="geometry" />
        </mxCell>
        <mxCell id="b1iTSKqFhkhz4oN8w0d4-283" value="&lt;font style=&quot;font-size: 18px;&quot;&gt;Gestion My Exercice (CRUD)&lt;/font&gt;" style="ellipse;whiteSpace=wrap;html=1;" vertex="1" parent="1">
          <mxGeometry x="1740" y="990" width="170" height="70" as="geometry" />
        </mxCell>
        <mxCell id="b1iTSKqFhkhz4oN8w0d4-284" value="&lt;font style=&quot;font-size: 18px;&quot;&gt;Gestion my account&amp;nbsp;&lt;/font&gt;" style="ellipse;whiteSpace=wrap;html=1;" vertex="1" parent="1">
          <mxGeometry x="1538" y="990" width="170" height="70" as="geometry" />
        </mxCell>
        <mxCell id="b1iTSKqFhkhz4oN8w0d4-285" value="&lt;font style=&quot;font-size: 18px;&quot;&gt;View static of chanel&lt;/font&gt;" style="ellipse;whiteSpace=wrap;html=1;" vertex="1" parent="1">
          <mxGeometry x="1350" y="990" width="170" height="70" as="geometry" />
        </mxCell>
        <mxCell id="b1iTSKqFhkhz4oN8w0d4-286" value="&lt;font style=&quot;font-size: 18px;&quot;&gt;Gestion My course (CRUD)&lt;/font&gt;" style="ellipse;whiteSpace=wrap;html=1;" vertex="1" parent="1">
          <mxGeometry x="1170" y="990" width="170" height="70" as="geometry" />
        </mxCell>
        <mxCell id="b1iTSKqFhkhz4oN8w0d4-287" value="&lt;font style=&quot;font-size: 18px;&quot;&gt;search by courses&lt;/font&gt;" style="ellipse;whiteSpace=wrap;html=1;" vertex="1" parent="1">
          <mxGeometry x="1930" y="990" width="170" height="70" as="geometry" />
        </mxCell>
        <mxCell id="b1iTSKqFhkhz4oN8w0d4-288" value="&lt;font style=&quot;font-size: 18px;&quot;&gt;Afficher les données des membres&lt;/font&gt;" style="ellipse;whiteSpace=wrap;html=1;" vertex="1" parent="1">
          <mxGeometry x="1740" y="1265" width="170" height="67.5" as="geometry" />
        </mxCell>
        <mxCell id="b1iTSKqFhkhz4oN8w0d4-289" value="&lt;font style=&quot;font-size: 18px;&quot;&gt;Search by Name of Users&lt;/font&gt;" style="ellipse;whiteSpace=wrap;html=1;" vertex="1" parent="1">
          <mxGeometry x="1930" y="1265" width="170" height="71.25" as="geometry" />
        </mxCell>
        <mxCell id="b1iTSKqFhkhz4oN8w0d4-290" value="&lt;font style=&quot;font-size: 18px;&quot;&gt;Gestion des offres&lt;/font&gt;" style="ellipse;whiteSpace=wrap;html=1;" vertex="1" parent="1">
          <mxGeometry x="2016" y="1189" width="170" height="67.5" as="geometry" />
        </mxCell>
        <mxCell id="b1iTSKqFhkhz4oN8w0d4-291" value="&lt;font style=&quot;font-size: 18px;&quot;&gt;Gestion CRUD of categourise&lt;/font&gt;" style="ellipse;whiteSpace=wrap;html=1;" vertex="1" parent="1">
          <mxGeometry x="1540" y="1265" width="170" height="67.5" as="geometry" />
        </mxCell>
        <mxCell id="b1iTSKqFhkhz4oN8w0d4-292" value="&lt;font style=&quot;font-size: 18px;&quot;&gt;Gestion CRUD of Tags&lt;/font&gt;" style="ellipse;whiteSpace=wrap;html=1;" vertex="1" parent="1">
          <mxGeometry x="1350" y="1265" width="170" height="67.5" as="geometry" />
        </mxCell>
        <mxCell id="b1iTSKqFhkhz4oN8w0d4-293" value="&lt;font style=&quot;font-size: 18px;&quot;&gt;Gestion statu of Users&amp;nbsp; (block/UnBlock)&lt;/font&gt;" style="ellipse;whiteSpace=wrap;html=1;" vertex="1" parent="1">
          <mxGeometry x="1170" y="1268.75" width="170" height="67.5" as="geometry" />
        </mxCell>
        <mxCell id="b1iTSKqFhkhz4oN8w0d4-294" value="&lt;font style=&quot;font-size: 23px;&quot;&gt;AuthLogin&lt;/font&gt;" style="ellipse;whiteSpace=wrap;html=1;" vertex="1" parent="1">
          <mxGeometry x="875" y="440" width="200" height="100" as="geometry" />
        </mxCell>
      </root>
    </mxGraphModel>
  </diagram>
</mxfile>
